<?xml version="1.0" standalone="no"?>
<!DOCTYPE svg PUBLIC "-//W3C//DTD SVG 20010904//EN"
 "http://www.w3.org/TR/2001/REC-SVG-20010904/DTD/svg10.dtd">
<svg version="1.0" xmlns="http://www.w3.org/2000/svg"
 width="1243.000000pt" height="801.000000pt" viewBox="0 0 1243.000000 801.000000"
 preserveAspectRatio="xMidYMid meet">

<g transform="translate(0.000000,801.000000) scale(0.100000,-0.100000)"
fill="#000000" stroke="none">
<path d="M4392 7800 c-68 -35 -115 -82 -146 -149 -29 -65 -29 -188 1 -252 30
-66 86 -124 151 -156 l57 -28 1755 0 1755 0 51 27 c77 40 110 73 143 140 27
53 31 72 31 142 0 64 -5 92 -24 131 -27 58 -99 128 -159 156 -41 18 -94 19
-1798 19 l-1756 0 -61 -30z"/>
<path d="M1399 7026 c-174 -48 -311 -201 -339 -376 -14 -90 -14 -5150 0 -5240
29 -181 174 -339 351 -379 29 -7 1629 -11 4799 -11 3997 0 4763 2 4806 14 158
42 288 172 330 330 11 42 14 483 14 2667 0 2593 0 2617 -20 2682 -41 134 -145
245 -278 299 l-57 23 -4780 2 c-3834 1 -4789 -1 -4826 -11z m3022 -1682 c186
-32 375 -106 531 -211 101 -67 263 -226 337 -330 110 -153 190 -342 228 -531
24 -120 23 -365 0 -485 -70 -349 -263 -648 -550 -850 -135 -96 -278 -160 -456
-205 -97 -25 -122 -27 -306 -27 -185 0 -208 2 -308 27 -265 68 -464 184 -654
381 -177 183 -288 394 -345 657 -30 137 -30 375 0 517 61 285 183 506 389 704
189 182 436 307 698 353 111 20 321 20 436 0z m4109 -22 c309 -80 558 -245
745 -493 174 -231 265 -505 265 -799 0 -363 -133 -684 -390 -940 -257 -258
-576 -390 -941 -390 -151 0 -279 20 -416 65 -473 157 -816 559 -898 1054 -27
157 -17 377 23 531 136 525 543 900 1082 996 50 9 132 12 245 10 149 -4 184
-8 285 -34z"/>
<path d="M405 5712 c-73 -36 -116 -79 -149 -152 l-26 -55 0 -1475 0 -1475 29
-60 c34 -72 102 -137 168 -159 26 -9 79 -16 118 -16 95 0 178 39 235 112 75
94 70 -13 70 1598 0 1250 -2 1453 -15 1496 -21 69 -79 141 -144 178 -47 26
-67 31 -140 34 -79 3 -91 1 -146 -26z"/>
<path d="M11745 5712 c-73 -36 -116 -79 -149 -152 l-26 -55 0 -1471 c0 -1677
-8 -1527 89 -1625 67 -67 123 -89 226 -89 123 0 220 63 278 180 l22 45 0 1485
0 1485 -25 50 c-29 60 -85 117 -142 146 -32 17 -65 24 -128 26 -78 4 -90 2
-145 -25z"/>
<path d="M4470 791 c-95 -19 -182 -89 -223 -180 -16 -35 -22 -66 -22 -126 0
-60 6 -91 22 -126 44 -97 126 -159 235 -179 35 -7 651 -9 1764 -8 l1709 3 56
26 c70 33 124 87 155 153 34 72 34 190 0 262 -31 66 -85 120 -155 153 l-56 26
-1725 1 c-949 1 -1741 -1 -1760 -5z"/>
</g>
</svg>
